<svg xmlns="http://www.w3.org/2000/svg" width="8.4" height="8.4" viewBox="0 0 8.4 8.4"><g><path d="M1.3,5.5A4.2,4.2,0,1,0,5.5,1.3,4.2,4.2,0,0,0,1.3,5.5" fill="#fff" opacity="0.25"/><path d="M1.8,5.5a3.7,3.7,0,0,0,7.4,0h0a3.7,3.7,0,0,0-7.4,0h0" fill="#fff" opacity="0.5"/><path d="M2.3,5.5a3.2,3.2,0,0,0,6.4,0h0a3.2,3.2,0,1,0-6.4,0h0" fill="#fff" opacity="0.75"/><path d="M2.8,5.5a2.7,2.7,0,0,0,5.4,0h0a2.7,2.7,0,1,0-5.4,0h0" fill="#fff"/><path d="M3.3,5.5a2.2,2.2,0,0,0,4.4,0h0a2.2,2.2,0,0,0-4.4,0" fill="hsl(224, 62%, 35%)"/></g></svg>